<svg version="1" xmlns="http://www.w3.org/2000/svg" width="666.667" height="666.667" viewBox="0 0 500.000000 500.000000"><path d="M349.2 114.7c-1 1-3.4 6-5.2 11.2-2.4 7.2-17.6 38.7-27.1 56.1-3.3 6.1-6.8 14.1-6 13.5.6-.3 2.9-3.3 5.1-6.6 4.3-6.3 6.5-8.1 3.2-2.7-1.1 1.8-4.7 8.2-8.2 14.1-3.4 5.9-6.4 10.6-6.6 10.4-.2-.2.6-2.7 1.7-5.6 1.1-3 1.8-5.5 1.6-5.8-.3-.2-2.4 2.9-4.7 6.9-10.6 18.3-19 32.9-22.4 39.3-6.8 12.5-5.4 11.7-34.2 19.6l-12.1 3.3 5 7.8c2.7 4.3 5.9 8.3 7 8.9 1.1.7 4.1.9 6.8.6 4.6-.6 4.8-.5 4 1.6-1.5 3.8-9.8 21.8-24.5 53.2-1.8 3.8-4.5 9.8-6.1 13.2-1.5 3.5-3 6.3-3.4 6.3-.9 0-21.3-16.3-23-18.3-2.3-2.9-.6-1.9 5.9 3.3 6.5 5.2 9.9 6.3 3.9 1.3-12.9-10.9-26.4-22.2-36.5-30.8-6.5-5.5-13.2-11.2-14.9-12.8-1.6-1.5-7.6-6.4-13.2-11-5.6-4.5-10.4-8.8-10.7-9.5-.6-1.2 10-7.2 12.8-7.2.9 0 2-.9 2.6-2 1.3-2.4.4-2.5-4.5-.4-5.1 2.1-6.6 1.3-1.9-1.1 3.7-1.9 14.6-8.3 39.9-23.2 6.6-3.9 19.4-11.4 28.4-16.7 9-5.2 16.6-9.8 17-10.2.7-.8-17.1 8.3-25.9 13.1-3.6 2-13.5 7.5-22 12.2-8.5 4.8-18.3 10.6-21.8 13-3.5 2.4-6.4 4.3-6.6 4.3-.4 0-14 7.4-21.1 11.5-2.5 1.4-4.7 2-5.9 1.6-1.5-.6.4-2.3 9.7-8.4 6.4-4.2 14.5-9 18-10.6 17.6-8.1 58.3-30.3 76.8-41.9 11.8-7.4 13.9-8.5 13.9-7.3 0 .5-2.2 2.3-4.9 4.1-4.7 2.9-9.8 7.6-6.1 5.5 1.6-.9 23.3-15.5 28.5-19.2 1.7-1.1 4.3-2.4 5.8-2.7l2.8-.7-2.2 3c-1.2 1.7-3.7 3.5-5.4 4.1-2 .7-3.9 2.4-5.3 4.8-2.7 4.9-5.2 7.1-13.8 12-3.9 2.3-7.6 4.8-8.3 5.6-1 1.2-1.8 1.3-3.2.5-1.6-.8-3-.2-7.8 3.6-6.5 5.1-10.2 7.4-17.1 10.7-2.5 1.1-6.1 3.4-8 5-3.1 2.5-3.5 2.6-4.1 1.1-.5-1.6-.7-1.6-1.3.3-.4 1.3-1.8 2.4-3.6 2.8-4.3.8-8 3.5-8 5.8 0 1.6-.3 1.8-1.3 1-.9-.8-2.9-.4-7.1 1.3-6.4 2.6-21.8 11.6-21.1 12.3.2.3 3.3-.1 6.7-.7 6.2-1.2 25.2-10.5 51.8-25.2 5.8-3.2 12.3-6.1 14.5-6.5 4-.6 19.9-9.7 32.5-18.3 7.3-5 22.2-19.6 26.8-26.3 7.9-11.5 10.5-24.3 6.3-31.4-3.2-5.5-12-15.7-15.6-18.2-3.3-2.2-17.6-6.5-29.4-8.8-10.6-2-34.8-1.1-57 2.2-17.5 2.6-66.1 18.9-86.6 29.1-18 8.9-37.9 23.4-50.3 36.7-6.2 6.7-12.4 17.7-12.4 22.1 0 3.9 2.1 8.1 4.8 9.6 2.1 1.1 3.2 1 7.7-.6 6.9-2.4 7.4-2.9 8.1-7.8.6-3.6 1.9-5.6 7.9-11.8 15.9-16.4 38.4-31.4 61.7-41.2 12.8-5.3 38.2-13.8 39.7-13.3 1.6.7-15.1 25.8-40.1 60.4-6.1 8.4-11.8 16.3-12.6 17.5-5.1 7.6-20.3 26.8-21.9 27.6-1.2.7-3.9.7-7.7.1-3.3-.5-7.7-1.2-9.9-1.5-2.2-.3-6.4-1-9.4-1.5-7.4-1.3-15.3-1.2-17.2.3-3.7 2.8-3.8 4.9-.3 12.4 1.8 3.9 4.1 7.6 5.1 8.1s5.4 1.3 9.8 1.6c11.6 1 16.5 1.7 17 2.7.3.4 1.7.4 3-.1 1.4-.5 2.5-.6 2.5-.1 0 .4-2.2 4.6-4.8 9.2-2.7 4.6-7 12.4-9.6 17.4-2.6 4.9-5 9.2-5.3 9.5-1.3 1.1 1-7.7 3.3-12.8 3.5-8 2.9-7.7-1.7.7-2.2 4.2-4 8.8-4 10.5 0 1.7-.5 5.3-1.1 8-1 4.4-.9 5.1.8 6.3 1.7 1.2 2.3.9 6.2-3.4 4.8-5.3 14.1-19 22.3-33 3.2-5.6 6-9.3 7-9.3 4.4 0 16.6 6.5 45.1 24.1 7.5 4.7 25.2 18 31.3 23.6 6.7 6.2 20.1 16 26.5 19.5 4.1 2.3 9.3 5.1 11.5 6.3 2.2 1.2 8.9 5 14.8 8.4 6 3.5 13.2 7.3 16 8.6 5.4 2.5 14.7 4.3 14.7 2.8-.1-.4-2.6-2.5-5.7-4.7-4-2.8-5.7-3.5-6.3-2.6-.5.9-3-.2-8.9-4-8.2-5.2-9.2-6.4-6.7-7.3 1.4-.6 13-18.8 14.1-22.2.7-2 .6-2-.9-.1-3.5 4.4-1.2.1 5.4-10 3.8-5.8 7-11.1 7.1-11.7 0-.7.4-.3.8.7.9 2.3 3.5-1.8 16.2-25.8 10.4-19.6 13.1-22.7 22.2-25.5 3.7-1.2 12.9-4.5 20.5-7.5 7.5-2.9 15.3-5.7 17.2-6 4.8-1 11-3.7 11-4.9 0-.5 1.5.2 3.4 1.7l3.4 2.6 1-2.8c.7-1.7 1.1-2.1 1.1-1 .2 3.1 1.7 2 2.8-2 1-3.4 1.1-3.2.7 2.8-.2 3.6-.6 13.7-.9 22.5-.9 25.8-1.3 32.7-1.9 33.3-.6.6-.7-.3-1-8-.1-5.4-1.6-7.7-1.7-2.7 0 1.9-.2 5.2-.4 7.4-.3 3.7-1.8 33.7-1.8 36 0 .5.3 8.6.6 18 .6 16.5-.3 19-2 5.5-1.1-9.2-.3-61.5 1-63.7.6-.9 1.3-11.4 2.2-30.3.6-13.4-.9-14.1-2.1-.9-.4 3.8-1 7.2-1.4 7.4-.7.4-.5-5.3.4-14.8.2-2.1.1-3.5-.2-3.2-1 .9-1.4 5.1-2.9 27.5-.9 14.3-1 54 0 68 1 15 4.2 28.1 7.7 30.7 2.3 1.8 3.4-.1 3-5.4-.5-7.9-.4-18 .4-33.8.5-8.3.9-20.3 1-26.8.2-9 .6-12.1 1.7-12.8 1.2-.8 1.2-1.1-.2-1.9-1.2-.7-1.6-2-1.3-4.2.5-4.2 1.3-17.2 1.3-22.1.1-2 .6-3.7 1.2-3.7.8 0 1 2.2.7 7-.4 4.8-.2 7 .6 6.7.6-.2 1.4-1.8 1.7-3.7.7-3 1-5.6 2.5-20.5 1.9-18 2.9-20.5 7.9-20.5 2 0 3.7-1 11.1-6.5 1.1-.8 7.4-2.9 14-4.6 6.5-1.7 12.8-3.6 13.8-4.1 1.3-.7.7.5-1.6 3.3-1.9 2.4-4.1 5.5-4.8 6.8-1.1 2.1-1 2.3.5 1.8 1.8-.7 1.4.1-6.2 12.1-1.8 2.9-3.3 5.6-3.3 6 0 .4-.9 1.8-2 3.2-1.1 1.4-2 2.8-2 3.2-.1 2.6 4.6-1.1 19.7-15.5 15.9-15.3 33.3-29.2 39.6-31.6 1.8-.7 3.5-2.6 4.7-5.3 2.3-5.2 1.5-6.4-5-7.3-5.1-.7-30.5-10.1-54.4-19.9-18.2-7.5-23.4-8.5-10.1-2 8.9 4.4 8.6 4.9-1 1.3-2.7-1.1-5.3-1.9-5.8-1.9-.9 0 5.5 9.9 6.5 9.9.5.1 31.5 14.8 35.8 17 .9.5 3 1.2 4.8 1.6 3.1.6 4.5 2.4 2 2.6-2.5.1-54.8 11.4-57.6 12.4-.9.3-1.1-.3-.7-2.2.2-1.5.7-5.6 1-9.2.4-3.6.8-7.3 1-8.1.2-.8.7-4.2 1-7.5.3-3.3.8-7.1 1-8.5.2-1.4.7-5.7 1.1-9.5.4-3.9.8-8.4 1-10 1.7-16 2.4-35.8 1.4-39.5-1.1-4.2-8.4-12.8-11.9-14.2-1.5-.6-3.9-1.1-5.6-1.2-1.6-.2-4.4-1-6.2-1.9-4.1-2.1-5.6-2.1-8.1 0zm-111.6 26.7c10.1.1 17.7.5 18.3 1.1.7.7-3.9 1-13.7 1.1-13.8.1-28.5.9-34.2 1.9-1.4.2-5.4.6-9 .9-7.1.7-9.6 1.1-12.1 2.1-1 .3-2 .2-2.4-.4-.3-.6-.4-1.1-.1-1.1.2 0 4-.7 8.3-1.5 4.3-.9 9.4-1.8 11.3-2.1 2-.3 6-1.1 9-1.8s5.9-1 6.4-.8c.6.3 8.7.6 18.2.6zm23.5 9.5c19.1 5.2 21.3 8.3 14.7 21.1-4.2 8-10.9 14.8-23.8 23.9-10.1 7.1-36.6 24.1-37.7 24.1-.3 0-1.7.8-3.1 1.9-1.5 1-4.7 3-7.2 4.3-13.6 7.7-25.8 14.8-36.3 21.1-6.5 4-13.2 8.1-15 9.1-1.8 1.1-7.9 5-13.7 8.6-15.4 9.9-15.9 10.1-20.8 8.8l-4.1-1 3.3-4.4c1.9-2.5 7-8.4 11.4-13.2 4.4-4.8 9.7-10.5 11.7-12.7 2-2.2 6.9-8.3 10.8-13.5 3.9-5.2 11.2-13.8 16.2-19.1 10-10.6 18.2-21.9 22.2-30.6 2.3-5 2.7-7.2 2.8-15.8v-10l7-1.2c7.2-1.1 13.5-1.9 24-3 3.3-.3 6.1-.7 6.3-.8.2-.2 5.6-.2 12 0 7.8.2 14.2 1 19.3 2.4zM168 153c-.8.5-6.6 2.6-12.9 4.6-6.3 2-16.8 5.9-23.5 8.5-6.6 2.7-12.5 4.7-13.1 4.5-1-.4 9.5-5.5 17-8.2 2.2-.8 6.5-2.4 9.5-3.6 6.7-2.5 20.9-6.6 23-6.7 1.3-.1 1.3 0 0 .9zm188.6 19.7c-.3 6.5-.8 15.2-1.2 19.3-.3 4.1-.7 14.1-.8 22.1-.2 8-.8 15.4-1.3 16.4-.7 1.2-7.3 3.7-21.4 8.1-11.2 3.4-21.7 6.7-23.3 7.3-1.6.7-3 1-3.2.9-.4-.5 50.6-85.8 51.3-85.8.3 0 .2 5.3-.1 11.7zm-53.3 40.8c-.3.9-.8 1.4-1 1.1-.3-.3-.2-.9.2-1.5.9-1.6 1.5-1.3.8.4zm-168 7.4c-.9.6-26.7 36.3-30.6 42.4-1.8 2.8-4.3 4.4-5.3 3.4-.6-.5 1.8-4.6 4.7-8.2 1.7-2 9.4-12.2 21.2-28 7.9-10.5 10.1-12.9 10.6-11.4.2.6-.1 1.4-.6 1.8zm296.7 4.8c0 .5-1.3 1.7-2.8 2.7l-2.7 1.9 2.4-2.6c2.6-2.8 3.1-3.2 3.1-2zm-126.6 5.2c-3.2 4.9-4.1 5.3-1.8.8 2-3.9 3.5-5.9 4.1-5.3.3.2-.8 2.3-2.3 4.5zm127.5-1.7c-.2.2-1.7 1.4-3.4 2.8l-3 2.5 2.4-2.8c1.4-1.5 2.9-2.7 3.4-2.7.6 0 .8.1.6.2zm-58.4 2.8c-.5.8 1 .9 4.7.4 6.2-.8 5.8.2-1.2 2.7l-5 1.8v-2.3c0-1.3.3-2.6.7-2.9 1-1.1 1.5-.8.8.3zm43.5 6.5c-8.6 8.7-9.6 8.3-1.2-.5 3.6-3.8 6.8-6.7 7.1-6.4.3.2-2.4 3.4-5.9 6.9zm-128.9.8c-1 .9-1.1.8-.5-.6.3-1 .9-1.5 1.2-1.2.3.3 0 1.1-.7 1.8zm-3.1 5.9c-1.1 2.4-2 5.1-2 6 0 1.5-3.7 4.5-4.5 3.6-.3-.3 7.5-13.8 8.1-13.8.2 0-.6 1.9-1.6 4.2zm11.4 0c-1.7 3.3-3.5 5.1-4.3 4.3-.4-.5 4.7-7.5 5.5-7.5.2 0-.3 1.5-1.2 3.2zm51.3-2.4c.8.5-3.4 1.9-10.2 3.6-6.3 1.5-11.7 2.8-12 2.7-.2 0-2.3.6-4.5 1.4-2.2.8-4 1.2-4 .9 0-.2-.9 0-2 .6s-2 .8-2 .5c0-.9 8.5-4.3 12.6-4.9 2.1-.4 4.5-1.3 5.4-2.1.8-.8 2.7-1.8 4-2.4 3-1.2 11-1.4 12.7-.3zM113 258.7c-6.1 11.5-6.3 11.8-7.8 10-.9-1 .3-3.4 5.4-10.5 3.6-5.1 6.8-9.2 7.1-9.2.2 0-1.9 4.4-4.7 9.7zm238 20.7c0 .3-.4.8-1 1.1-.5.3-1 .1-1-.4 0-.6.5-1.1 1-1.1.6 0 1 .2 1 .4zm-.9 10.3c-.4 9.4-1.1 9.3-1.1-.2 0-4.3.3-7.5.7-7.2.3.4.5 3.7.4 7.4zm-258.4.6c-.7 1.2-4 6.6-7.2 11.9-3.3 5.4-6.3 9.8-6.7 9.8-1 0 .2-2.8 3.2-7.5 1.5-2.2 4.4-7 6.5-10.7 2.1-3.7 4.3-6.5 4.7-6.2.5.3.3 1.6-.5 2.7zm142.4 60.2c-3.1 6.3-6 11.5-6.4 11.5-1.1 0 .1-5.4 2.1-10 1.8-3.9 8.2-13 9.3-13 .3 0-1.9 5.2-5 11.5z"/></svg>